<svg width="14" height="14" viewBox="0 0 14 14" fill="none" xmlns="http://www.w3.org/2000/svg">
<path d="M0.985816 1.11426C1.23409 1.02855 1.53754 1.08569 1.70306 1.28569L2.86168 2.45712C3.99271 1.28569 5.53754 0.599976 7.19271 0.599976C10.6134 0.628547 13.3996 3.48569 13.3996 6.99998C13.3996 10.5428 10.6134 13.4 7.2203 13.4C5.75823 13.4 4.35133 12.8857 3.24789 11.9428C2.97202 11.6857 2.94444 11.2571 3.16513 10.9714C3.4134 10.6857 3.8272 10.6285 4.10306 10.8857C4.95823 11.6285 6.06168 12.0285 7.2203 12.0285C9.89616 12.0285 12.0755 9.79998 12.0755 6.99998C12.0755 4.22855 9.89616 1.9714 7.2203 1.9714C5.89616 1.9714 4.70995 2.54283 3.79961 3.42855L5.23409 4.94283C5.4272 5.11426 5.48237 5.42855 5.39961 5.68569C5.28926 5.94283 5.04099 6.08569 4.79271 6.08569H1.26168C0.875471 6.08569 0.599609 5.79998 0.599609 5.39998V1.74283C0.599609 1.48569 0.73754 1.22855 0.985816 1.11426Z" fill="#181871"/>
</svg>
