<svg width="28" height="28" viewBox="0 0 28 28" fill="none" xmlns="http://www.w3.org/2000/svg">
<path d="M14 0.666687C6.60413 0.666687 0.666626 6.65627 0.666626 14C0.666626 21.3959 6.60413 27.3334 14 27.3334C21.3437 27.3334 27.3333 21.3959 27.3333 14C27.3333 6.65627 21.3437 0.666687 14 0.666687ZM14 25.6667C7.54163 25.6667 2.33329 20.4584 2.33329 14C2.33329 7.59377 7.54163 2.33335 14 2.33335C20.4062 2.33335 25.6666 7.59377 25.6666 14C25.6666 20.4584 20.4062 25.6667 14 25.6667ZM14 10.25C14.677 10.25 15.25 9.72919 15.25 9.00002C15.25 8.32294 14.677 7.75002 14 7.75002C13.2708 7.75002 12.75 8.32294 12.75 9.00002C12.75 9.72919 13.2708 10.25 14 10.25ZM16.5 19H14.8333V13.1667C14.8333 12.75 14.4166 12.3334 14 12.3334H12.3333C11.8645 12.3334 11.5 12.75 11.5 13.1667C11.5 13.6354 11.8645 14 12.3333 14H13.1666V19H11.5C11.0312 19 10.6666 19.4167 10.6666 19.8334C10.6666 20.3021 11.0312 20.6667 11.5 20.6667H16.5C16.9166 20.6667 17.3333 20.3021 17.3333 19.8334C17.3333 19.4167 16.9166 19 16.5 19Z" fill="#181871"/>
</svg>
