<svg width="20" height="20" viewBox="0 0 20 20" fill="none" xmlns="http://www.w3.org/2000/svg">
<path d="M9.9999 0.399902C4.6749 0.399902 0.399902 4.7124 0.399902 9.9999C0.399902 15.3249 4.6749 19.5999 9.9999 19.5999C15.2874 19.5999 19.5999 15.3249 19.5999 9.9999C19.5999 4.7124 15.2874 0.399902 9.9999 0.399902ZM9.9999 5.1999C10.6374 5.1999 11.1999 5.7624 11.1999 6.3999C11.1999 7.0749 10.6374 7.5999 9.9999 7.5999C9.3249 7.5999 8.7999 7.0749 8.7999 6.3999C8.7999 5.7624 9.3249 5.1999 9.9999 5.1999ZM11.4999 14.7999H8.4999C7.9749 14.7999 7.5999 14.4249 7.5999 13.8999C7.5999 13.4124 7.9749 12.9999 8.4999 12.9999H9.0999V10.5999H8.7999C8.2749 10.5999 7.8999 10.2249 7.8999 9.6999C7.8999 9.2124 8.2749 8.7999 8.7999 8.7999H9.9999C10.4874 8.7999 10.8999 9.2124 10.8999 9.6999V12.9999H11.4999C11.9874 12.9999 12.3999 13.4124 12.3999 13.8999C12.3999 14.4249 11.9874 14.7999 11.4999 14.7999Z" fill="#CCCCCC"/>
</svg>
